<svg width="720" height="720" viewBox="0 0 720 720" fill="none" xmlns="http://www.w3.org/2000/svg">
<rect width="720" height="720" rx="118" fill="url(#paint0_linear_404_4420)"/>
<g filter="url(#filter0_d_404_4420)">
<g filter="url(#filter1_d_404_4420)">
<path d="M620.755 204.56C620.53 205.462 620.192 206.363 619.967 207.264C610.73 241.622 601.381 275.98 592.143 310.338C585.836 333.769 579.413 357.201 573.107 380.63C572.655 382.208 571.867 383.334 570.741 384.46C569.277 385.699 567.585 386.714 565.896 387.615C561.503 389.756 556.886 391.221 552.154 392.458C549.112 393.248 546.07 393.922 543.028 394.149C540.662 394.374 538.185 394.599 535.82 394.823C533.341 395.051 530.75 395.275 528.271 395.614C525.905 395.838 523.54 396.063 521.063 396.288C518.584 396.515 516.105 396.74 513.628 396.964C511.262 397.189 508.897 397.416 506.531 397.641C503.941 397.866 501.461 398.09 498.871 398.429C496.505 398.653 494.14 398.88 491.661 399.105C489.181 399.33 486.705 399.555 484.225 399.782C481.86 400.007 479.494 400.231 477.129 400.456C474.538 400.683 472.059 400.908 469.469 401.246C467.103 401.471 464.737 401.696 462.258 401.92C459.781 402.147 457.302 402.372 454.825 402.71C452.46 402.935 450.094 403.16 447.729 403.385C444.348 403.612 441.081 403.95 437.703 404.175C435.449 404.286 433.308 404.513 431.056 404.624C427.789 404.849 424.635 405.076 421.368 405.414C419.228 405.526 417.087 405.75 415.059 405.864C412.694 406.089 410.328 406.202 407.849 406.427C405.71 406.54 403.683 406.765 401.542 406.879C399.176 407.103 396.811 407.215 394.332 407.442C392.191 407.553 390.163 407.78 388.025 407.891C385.659 408.116 383.294 408.229 380.928 408.454C378.898 408.568 376.871 408.792 374.844 408.906C372.367 409.131 370.001 409.244 367.522 409.469C365.381 409.58 363.354 409.807 361.213 409.919C358.961 410.146 356.595 410.257 354.341 410.482C352.313 410.595 350.286 410.82 348.145 410.933C345.78 411.158 343.414 411.272 341.048 411.496C339.021 411.61 336.994 411.835 334.853 411.946C332.487 412.173 330.235 412.284 327.869 412.511C325.842 412.622 323.815 412.847 321.787 412.961C319.422 413.185 317.056 413.299 314.577 413.524C312.549 413.637 310.521 413.862 308.494 413.976C306.128 414.2 303.763 414.311 301.397 414.539C299.369 414.65 297.342 414.877 295.314 414.988C292.948 415.213 290.583 415.326 288.217 415.551C286.189 415.665 284.274 415.889 282.247 416.003C279.881 416.228 277.515 416.341 275.037 416.566C272.897 416.677 270.869 416.904 268.729 417.015C266.476 417.242 264.223 417.354 261.97 417.578C259.83 417.692 257.802 417.917 255.662 418.03C253.521 418.144 251.494 418.368 249.353 418.48C249.015 418.48 248.677 418.593 248.339 418.707C248.339 418.932 248.339 418.932 248.339 419.043C249.015 421.408 249.691 423.774 250.367 426.14C250.48 426.478 250.592 426.705 250.705 426.93C251.606 428.957 253.183 429.972 255.211 430.197C256.337 430.308 257.464 430.421 258.59 430.421C259.717 430.421 260.731 430.421 261.857 430.421C342.965 430.421 423.959 430.421 505.067 430.421C512.388 430.421 519.823 430.421 527.145 430.421C531.651 430.421 536.158 430.984 540.551 432.224C553.167 435.94 562.743 443.376 568.6 455.317C570.741 459.71 571.978 464.441 572.43 469.397C573.107 476.608 572.317 483.705 569.613 490.463C564.657 502.741 555.757 510.966 543.366 515.359C539.087 516.823 534.58 517.611 530.074 517.836C523.315 518.174 516.781 517.5 510.472 515.134C496.167 509.838 487.154 499.701 483.324 484.944C482.312 481.114 481.749 477.171 481.973 473.116C482.085 470.637 482.423 468.271 482.65 465.906C482.875 464.103 483.099 462.189 483.213 460.387C483.213 460.273 483.213 460.16 483.099 459.935C482.65 459.935 482.312 459.935 481.86 459.935C473.299 459.935 464.737 459.935 456.063 459.824C437.365 459.71 418.665 459.71 399.964 459.597C384.869 459.597 369.663 459.71 354.568 459.71C335.08 459.71 315.478 459.824 295.99 459.824C295.539 459.824 294.976 459.824 294.413 459.824C294.525 460.273 294.525 460.498 294.638 460.836C295.427 463.878 295.99 466.921 296.215 470.074C297.229 481.789 294.3 492.491 286.753 501.615C280.332 509.502 271.996 514.458 262.083 516.71C257.239 517.836 252.395 518.063 247.438 517.725C239.891 517.162 232.794 515.134 226.26 511.191C218.262 506.346 212.742 499.474 209.025 490.913C206.434 484.831 205.308 478.635 205.645 471.988C206.321 460.16 211.165 450.248 219.727 442.025C220.177 441.573 220.628 441.123 221.078 440.672C222.205 439.434 222.543 437.968 222.092 436.392C221.304 433.688 220.402 430.984 219.501 428.28C208.349 393.586 197.197 358.89 186.157 324.082C179.06 301.889 171.963 279.697 164.867 257.618C164.529 256.492 164.078 255.365 163.627 254.239C163.177 254.239 162.726 254.239 162.276 254.239C146.28 254.239 130.396 254.239 114.4 254.239C112.485 254.239 110.57 254.013 108.767 253.563C103.811 252.324 100.657 249.057 99.6429 243.988C99.0797 240.946 99.0797 237.792 99.8682 234.75C101.22 229.681 104.599 226.865 109.556 225.739C111.471 225.288 113.386 225.175 115.414 225.175C135.015 225.175 154.616 225.175 174.216 225.175C176.469 225.175 178.722 225.288 180.975 225.964C183.792 226.752 186.045 228.442 187.622 230.92C188.861 232.835 189.649 234.863 190.213 237.003C195.056 251.986 200.013 266.517 204.744 281.162C215.784 315.745 226.936 350.44 237.976 385.025C238.201 385.813 238.539 386.601 238.877 387.391C239.665 388.855 240.905 389.643 242.482 389.643C244.397 389.643 246.312 389.529 248.227 389.304C250.367 389.191 252.395 388.966 254.535 388.741C257.689 388.517 260.956 388.178 264.11 387.954C266.025 387.84 267.94 387.615 269.855 387.502C273.122 387.277 276.502 386.939 279.768 386.714C281.909 386.601 283.936 386.376 286.077 386.262C289.231 386.038 292.385 385.813 295.427 385.475C297.454 385.361 299.369 385.136 301.397 385.025C304.664 384.798 308.043 384.46 311.31 384.235C313.337 384.124 315.254 383.897 317.281 383.785C319.758 383.558 322.123 383.447 324.603 383.222C326.63 383.109 328.657 382.884 330.685 382.771C333.05 382.546 335.416 382.432 337.895 382.208C339.811 382.094 341.838 381.869 343.752 381.758C346.231 381.531 348.711 381.42 351.187 381.193C353.104 381.082 355.131 380.857 357.045 380.743C360.425 380.519 363.692 380.18 367.07 379.956C369.1 379.842 371.014 379.617 373.041 379.504C375.52 379.279 377.886 379.165 380.363 378.941C382.392 378.827 384.306 378.602 386.334 378.491C389.6 378.264 392.981 377.928 396.248 377.701C398.275 377.59 400.303 377.363 402.33 377.252C404.809 377.027 407.175 376.913 409.651 376.689C411.681 376.575 413.709 376.35 415.736 376.237C419.114 376.012 422.494 375.674 425.875 375.449C427.902 375.335 429.816 375.111 431.843 374.997C435.224 374.772 438.491 374.434 441.869 374.209C444.462 373.985 446.938 373.76 449.531 373.533C452.122 373.308 454.598 373.083 457.191 372.745C459.668 372.52 462.258 372.296 464.737 372.069C467.328 371.844 469.921 371.619 472.511 371.281C474.2 371.167 475.889 370.942 477.692 370.831C480.396 370.604 483.099 370.266 485.803 370.041C488.283 369.816 490.873 369.592 493.35 369.365C495.942 369.14 498.644 368.915 501.237 368.577C502.926 368.466 504.615 368.239 506.306 368.127C509.008 367.9 511.712 367.564 514.416 367.337C516.895 367.113 519.372 366.888 521.851 366.663C524.555 366.436 527.145 366.211 529.849 365.873C531.538 365.762 533.227 365.535 534.918 365.423C538.635 365.085 542.24 364.409 545.845 363.283C546.07 363.169 546.184 363.169 546.408 363.058C547.648 362.72 548.211 361.932 548.549 360.692C553.392 341.878 558.35 323.067 563.192 304.142C566.01 293.215 568.825 282.401 571.529 271.474C571.642 271.136 571.642 270.798 571.754 270.46C571.642 270.46 571.642 270.347 571.529 270.347C571.304 270.685 571.079 270.911 570.852 271.249C560.602 285.104 550.352 299.073 540.099 312.928C530.412 326.109 520.725 339.288 511.037 352.356C510.586 352.919 510.136 353.144 509.46 353.144C504.276 353.144 499.096 353.144 493.802 353.144C493.011 353.144 492.562 352.805 492.224 352.242C480.734 333.317 469.13 314.392 457.641 295.468C453.023 287.921 448.516 280.373 443.899 272.938C443.672 272.6 443.447 272.375 443.222 271.925C443.109 272.263 443.109 272.488 443.109 272.713C443.109 273.164 443.109 273.502 443.109 273.952C443.109 305.719 443.109 337.485 443.109 369.253C443.109 369.816 443.109 370.266 443.109 370.831C442.207 371.056 407.738 371.167 406.612 370.942C406.612 370.718 406.498 370.493 406.498 370.266C406.498 369.93 406.498 369.478 406.498 369.14C406.498 314.506 406.498 259.871 406.498 205.349C406.498 204.899 406.498 204.561 406.498 204.11C406.498 202.871 407.286 202.307 408.414 202.082C408.75 202.082 408.977 202.082 409.316 202.082C418.778 202.082 428.241 202.082 437.703 202.082C438.602 202.082 439.054 202.307 439.503 203.096C452.796 225.063 466.091 247.142 479.269 269.108C486.705 281.5 494.251 293.891 501.686 306.282C501.911 306.62 502.024 306.846 502.363 307.184C502.701 306.846 502.926 306.508 503.264 306.17C515.092 291.976 526.92 277.782 538.635 263.589C554.856 243.875 571.529 223.711 588.313 203.547C588.876 202.871 589.439 202.533 590.454 202.533C599.015 202.533 607.69 202.533 616.251 202.533C616.925 202.533 617.715 202.533 618.389 202.533C619.404 202.42 620.306 202.646 620.755 203.772C620.755 203.997 620.755 204.222 620.755 204.56ZM527.822 459.485C526.807 459.597 525.794 459.597 524.779 459.824C516.895 461.174 511.712 467.933 512.502 475.593C513.065 480.887 515.769 484.717 520.5 487.083C523.653 488.661 527.031 489.113 530.525 488.436C535.593 487.535 539.311 484.944 541.452 480.213C542.578 477.847 542.917 475.255 542.578 472.553C542.24 469.173 541 466.244 538.635 463.878C535.82 460.836 532.101 459.597 527.822 459.485ZM252.057 459.485C251.043 459.597 250.142 459.597 249.128 459.824C241.918 460.95 236.399 466.921 236.737 474.692C236.962 479.536 238.989 483.366 242.932 486.07C246.199 488.322 249.804 488.999 253.746 488.661C255.999 488.436 258.252 487.759 260.28 486.52C264.899 483.591 267.039 479.198 267.039 473.79C266.926 468.721 264.899 464.666 260.618 461.962C257.915 460.273 255.098 459.485 252.057 459.485Z" fill="white"/>
</g>
<path d="M386.316 235.5C377.979 243.16 369.643 250.82 361.309 258.593C360.971 258.255 360.632 257.917 360.294 257.579C355 252.285 349.142 247.891 342.384 244.737C337.653 242.597 332.694 241.132 327.627 240.344C323.459 239.668 319.402 239.443 315.234 239.555C306.448 239.893 297.887 241.696 290.001 245.638C277.047 252.172 268.711 262.536 264.43 276.392C263.078 280.897 262.403 285.403 262.065 290.135C261.614 297.231 262.29 304.328 264.43 311.2C269.837 328.209 281.102 339.474 298.112 345.107C302.168 346.46 306.223 347.134 310.502 347.586C314.671 348.035 318.839 348.035 322.896 347.699C331.23 347.023 339.117 344.995 346.552 341.165C347.34 340.714 347.678 340.264 347.678 339.363C347.678 323.705 347.678 308.159 347.678 292.5C347.678 292.05 347.678 291.599 347.678 291.261C348.579 291.036 382.036 290.923 383.274 291.149C383.274 291.486 383.387 291.937 383.387 292.275C383.387 314.354 383.387 336.434 383.387 358.399C383.387 359.189 383.163 359.639 382.486 360.09C375.051 365.496 366.941 369.778 358.267 373.045C350.945 375.86 343.285 377.887 335.512 379.127C331.682 379.803 327.852 380.253 324.022 380.591C320.078 380.929 316.248 381.043 312.305 380.929C296.084 380.48 280.539 376.986 266.233 368.99C244.379 356.823 230.523 338.462 224.778 314.016C223.651 309.398 222.975 304.666 222.75 299.935C222.637 296.218 222.412 292.388 222.637 288.67C224.215 256.227 242.013 229.642 270.626 215.899C278.173 212.294 286.059 209.703 294.282 208.126C298.225 207.338 302.168 206.887 306.223 206.549C310.954 206.099 315.572 206.099 320.303 206.211C329.654 206.549 338.779 207.901 347.678 210.605C359.956 214.322 370.883 220.292 380.345 228.966C382.261 230.769 384.064 232.796 385.978 234.711C385.978 235.049 386.202 235.275 386.316 235.5Z" fill="white"/>
</g>
<defs>
<filter id="filter0_d_404_4420" x="83.2451" y="202.082" width="553.51" height="347.835" filterUnits="userSpaceOnUse" color-interpolation-filters="sRGB">
<feFlood flood-opacity="0" result="BackgroundImageFix"/>
<feColorMatrix in="SourceAlpha" type="matrix" values="0 0 0 0 0 0 0 0 0 0 0 0 0 0 0 0 0 0 127 0" result="hardAlpha"/>
<feOffset dy="16"/>
<feGaussianBlur stdDeviation="8"/>
<feComposite in2="hardAlpha" operator="out"/>
<feColorMatrix type="matrix" values="0 0 0 0 0 0 0 0 0 0 0 0 0 0 0 0 0 0 0.25 0"/>
<feBlend mode="normal" in2="BackgroundImageFix" result="effect1_dropShadow_404_4420"/>
<feBlend mode="normal" in="SourceGraphic" in2="effect1_dropShadow_404_4420" result="shape"/>
</filter>
<filter id="filter1_d_404_4420" x="99.2451" y="202.082" width="534.035" height="329.11" filterUnits="userSpaceOnUse" color-interpolation-filters="sRGB">
<feFlood flood-opacity="0" result="BackgroundImageFix"/>
<feColorMatrix in="SourceAlpha" type="matrix" values="0 0 0 0 0 0 0 0 0 0 0 0 0 0 0 0 0 0 127 0" result="hardAlpha"/>
<feOffset dx="6.75" dy="7.5"/>
<feGaussianBlur stdDeviation="2.8875"/>
<feComposite in2="hardAlpha" operator="out"/>
<feColorMatrix type="matrix" values="0 0 0 0 0 0 0 0 0 0 0 0 0 0 0 0 0 0 0.25 0"/>
<feBlend mode="normal" in2="BackgroundImageFix" result="effect1_dropShadow_404_4420"/>
<feBlend mode="normal" in="SourceGraphic" in2="effect1_dropShadow_404_4420" result="shape"/>
</filter>
<linearGradient id="paint0_linear_404_4420" x1="359.955" y1="5.59231e-05" x2="370.874" y2="719.836" gradientUnits="userSpaceOnUse">
<stop stop-color="#0D965E"/>
<stop offset="0.9" stop-color="#00683F"/>
</linearGradient>
</defs>
</svg>
